<svg width="32" height="32" viewBox="0 0 32 32" fill="none" xmlns="http://www.w3.org/2000/svg">
<path d="M11.512 16.5366C11.512 17.5458 12.249 18.3675 13.1435 18.3675C14.0522 18.3675 14.775 17.5458 14.775 16.5366C14.7893 15.5346 14.0594 14.7057 13.1435 14.7057C12.2347 14.7057 11.512 15.5275 11.512 16.5366Z" fill="#A6A6A6"/>
<path d="M17.5442 16.5366C17.5442 17.5458 18.2812 18.3675 19.1757 18.3675C20.0916 18.3675 20.8072 17.5458 20.8072 16.5366C20.8215 15.5346 20.0916 14.7057 19.1757 14.7057C18.2669 14.7057 17.5442 15.5275 17.5442 16.5366Z" fill="#A6A6A6"/>
<path fill-rule="evenodd" clip-rule="evenodd" d="M16 32C24.8366 32 32 24.8366 32 16C32 7.16344 24.8366 0 16 0C7.16344 0 0 7.16344 0 16C0 24.8366 7.16344 32 16 32ZM22.4451 10.0708C22.4553 10.075 22.4637 10.0826 22.4687 10.0924C24.5188 13.1098 25.5313 16.5135 25.1527 20.432C25.152 20.4402 25.1495 20.4482 25.1454 20.4554C25.1413 20.4626 25.1358 20.4689 25.1291 20.4738C23.7569 21.4911 22.2214 22.2665 20.5887 22.7666C20.5771 22.7701 20.5648 22.77 20.5534 22.7661C20.5419 22.7622 20.532 22.7548 20.525 22.745C20.1797 22.2654 19.87 21.7612 19.5983 21.2363C19.5946 21.229 19.5925 21.2211 19.592 21.2129C19.5916 21.2048 19.5928 21.1966 19.5957 21.189C19.5987 21.1814 19.6031 21.1745 19.6089 21.1687C19.6147 21.1629 19.6216 21.1585 19.6292 21.1556C20.1196 20.971 20.5936 20.7453 21.046 20.4809C21.0542 20.476 21.0611 20.4691 21.066 20.4609C21.0709 20.4527 21.0738 20.4435 21.0743 20.4339C21.0748 20.4244 21.0729 20.4148 21.0689 20.4062C21.0648 20.3975 21.0587 20.39 21.051 20.3843C20.9552 20.3128 20.8612 20.2391 20.7691 20.163C20.7609 20.1563 20.7509 20.152 20.7404 20.1508C20.7299 20.1495 20.7192 20.1512 20.7097 20.1558C17.7739 21.5131 14.5574 21.5131 11.5864 20.1558C11.5769 20.1515 11.5663 20.15 11.556 20.1514C11.5456 20.1528 11.5358 20.157 11.5278 20.1637C11.4357 20.2394 11.342 20.3129 11.2465 20.3843C11.2389 20.39 11.2328 20.3976 11.2289 20.4063C11.2249 20.415 11.2231 20.4245 11.2236 20.4341C11.2242 20.4436 11.2271 20.4529 11.2321 20.4611C11.2371 20.4692 11.244 20.476 11.2522 20.4809C11.7057 20.7431 12.1792 20.9689 12.6684 21.1563C12.676 21.1591 12.6829 21.1635 12.6887 21.1691C12.6945 21.1748 12.6991 21.1816 12.702 21.1892C12.705 21.1968 12.7064 21.2049 12.706 21.213C12.7056 21.2211 12.7035 21.229 12.6998 21.2363C12.4327 21.7641 12.1225 22.269 11.7725 22.7458C11.7653 22.7554 11.7553 22.7625 11.7439 22.7663C11.7325 22.77 11.7203 22.7702 11.7088 22.7667C10.0789 22.2649 8.54612 21.4895 7.1757 20.4738C7.16912 20.4686 7.16363 20.4622 7.15958 20.4549C7.15552 20.4476 7.15297 20.4396 7.15208 20.4313C6.83581 17.0419 7.48052 13.6101 9.83401 10.0917C9.83976 10.0824 9.84826 10.0751 9.85834 10.0708C11.0352 9.52976 12.2774 9.14424 13.5536 8.92397C13.5652 8.92215 13.577 8.92385 13.5876 8.92887C13.5982 8.93389 13.6071 8.94198 13.613 8.9521C13.786 9.2585 13.942 9.57423 14.0803 9.89784C15.4558 9.68882 16.855 9.68882 18.2305 9.89784C18.3679 9.57505 18.5214 9.2594 18.6906 8.9521C18.6962 8.94176 18.705 8.93347 18.7157 8.92842C18.7264 8.92337 18.7383 8.92182 18.7499 8.92397C20.026 9.14471 21.2681 9.5302 22.4451 10.0708Z" fill="#A6A6A6"/>
</svg>
